<svg width="170" height="28" viewBox="0 0 170 28" fill="none" xmlns="http://www.w3.org/2000/svg">
<g clip-path="url(#clip0_1_1315)">
<path d="M60.1989 10.332C60.1989 14.0731 57.7064 17.0251 53.4939 17.0251H50.7099C49.9228 17.0251 49.2815 17.6681 49.2815 18.4573V22.5053C49.2815 23.2944 48.6401 23.9375 47.853 23.9375C47.0659 23.9375 46.4246 23.2944 46.4246 22.5053V15.6076C46.4246 14.8185 47.0659 14.1754 47.853 14.1754H53.5231C55.5929 14.1754 57.342 13.1086 57.342 10.522C57.342 7.93536 55.418 6.8101 53.3336 6.8101H47.853C47.0659 6.8101 46.4246 6.1671 46.4246 5.37795C46.4246 4.58881 47.0659 3.9458 47.853 3.9458H52.6048C57.7938 3.9458 60.1989 6.56167 60.1989 10.332Z" fill="white"/>
<path d="M64.907 3.9458C65.6941 3.9458 66.3354 4.58881 66.3354 5.37795V22.4907C66.3354 23.2798 65.6941 23.9228 64.907 23.9228C64.1199 23.9228 63.4785 23.2798 63.4785 22.4907V5.37795C63.4785 4.58881 64.1199 3.9458 64.907 3.9458ZM67.9534 22.4907C67.9534 21.7015 68.5947 21.0585 69.3818 21.0585H72.9821C73.7692 21.0585 74.4105 21.7015 74.4105 22.4907C74.4105 23.2798 73.7692 23.9228 72.9821 23.9228H69.3818C68.5947 23.9228 67.9534 23.2798 67.9534 22.4907Z" fill="white"/>
<path d="M137.685 22.5344V5.45094C137.685 4.82255 137.321 4.22338 136.723 4.0334C135.746 3.72651 134.843 4.44259 134.843 5.39248V16.6451C134.843 17.0397 134.58 17.405 134.187 17.5073C133.866 17.595 133.516 17.4927 133.298 17.2443L123.269 5.96242C122.861 5.49478 122.176 5.29019 121.622 5.53862C120.675 5.96242 120.485 7.10229 121.112 7.80376L135.12 23.5866C135.309 23.8351 135.571 24.025 135.878 24.1273C135.907 24.1273 135.936 24.142 135.95 24.1566C135.994 24.1566 136.023 24.1566 136.067 24.1712C136.125 24.1712 136.198 24.1858 136.256 24.1858C136.256 24.1858 136.271 24.1858 136.286 24.1858C136.621 24.1858 136.956 24.0689 137.233 23.8351C137.612 23.499 137.758 23.0167 137.7 22.5637L137.685 22.5344Z" fill="white"/>
<path d="M123.43 12.1733C122.57 11.3111 121.083 11.9102 121.083 13.1378V22.5491C121.083 23.309 121.695 23.9227 122.453 23.9227H122.555C123.313 23.9227 123.925 23.309 123.925 22.5491V13.2547C123.925 12.8893 123.779 12.5386 123.532 12.2902L123.43 12.1879V12.1733Z" fill="white"/>
<path d="M156.707 5.37795V5.3195C156.707 4.55958 157.319 3.9458 158.077 3.9458H168.63C169.388 3.9458 170 4.55958 170 5.3195V5.37795C170 6.13787 169.388 6.75165 168.63 6.75165H158.077C157.319 6.75165 156.707 6.13787 156.707 5.37795ZM161.925 22.5491V9.74747C161.925 8.98755 162.537 8.37378 163.295 8.37378H163.397C164.155 8.37378 164.767 8.98755 164.767 9.74747V22.5491C164.767 23.3091 164.155 23.9228 163.397 23.9228H163.295C162.537 23.9228 161.925 23.3091 161.925 22.5491Z" fill="white"/>
<path d="M84.8178 3.69727C79.1768 3.69727 74.6 8.28599 74.6 13.9415C74.6 19.5971 79.1768 24.1858 84.8178 24.1858C90.4587 24.1858 95.0355 19.5971 95.0355 13.9415C95.0355 8.28599 90.4587 3.69727 84.8178 3.69727ZM84.8178 21.3215C80.751 21.3215 77.4569 18.0188 77.4569 13.9415C77.4569 9.86428 80.751 6.56157 84.8178 6.56157C88.8845 6.56157 92.1786 9.86428 92.1786 13.9415C92.1786 18.0188 88.8845 21.3215 84.8178 21.3215Z" fill="white"/>
<path d="M107.688 3.69727C102.047 3.69727 97.4697 8.28599 97.4697 13.9415C97.4697 19.5971 102.047 24.1858 107.688 24.1858C113.328 24.1858 117.905 19.5971 117.905 13.9415C117.905 8.28599 113.328 3.69727 107.688 3.69727ZM107.688 21.3215C103.621 21.3215 100.327 18.0188 100.327 13.9415C100.327 9.86428 103.621 6.56157 107.688 6.56157C111.754 6.56157 115.048 9.86428 115.048 13.9415C115.048 18.0188 111.754 21.3215 107.688 21.3215Z" fill="white"/>
<path d="M153.194 3.9458H142.539C141.75 3.9458 141.11 4.58372 141.11 5.37064C141.11 6.15756 141.75 6.79549 142.539 6.79549H153.194C153.983 6.79549 154.622 6.15756 154.622 5.37064C154.622 4.58372 153.983 3.9458 153.194 3.9458Z" fill="white"/>
<path d="M153.194 21.0583H142.539C141.75 21.0583 141.11 21.6963 141.11 22.4832C141.11 23.2701 141.75 23.908 142.539 23.908H153.194C153.983 23.908 154.622 23.2701 154.622 22.4832C154.622 21.6963 153.983 21.0583 153.194 21.0583Z" fill="white"/>
<path d="M149.885 12.5239H142.539C141.75 12.5239 141.11 13.1619 141.11 13.9488C141.11 14.7357 141.75 15.3736 142.539 15.3736H149.885C150.674 15.3736 151.314 14.7357 151.314 13.9488C151.314 13.1619 150.674 12.5239 149.885 12.5239Z" fill="white"/>
<path d="M34.9534 5.9916L31.1053 7.39453C27.884 1.34442 20.6543 -1.56372 14.0368 0.847554C7.41931 3.25883 3.76073 10.1565 5.16002 16.8643L1.31196 18.2672C0.277061 18.6471 -0.247676 19.787 0.116724 20.8246C0.481125 21.8622 1.63263 22.3883 2.66753 22.0229L6.51559 20.62C9.73689 26.6701 16.9666 29.5782 23.5841 27.167C30.187 24.7557 33.8602 17.858 32.4609 11.1503L36.309 9.74734C37.3439 9.36739 37.8686 8.22751 37.5042 7.18993C37.1398 6.15236 35.9883 5.62626 34.9534 5.9916ZM22.214 23.3674C17.054 25.2526 11.3403 22.5782 9.45995 17.405C7.57964 12.2317 10.2471 6.50309 15.407 4.61791C19.9255 2.96655 24.8668 4.80789 27.2864 8.76822L21.7621 10.7849C20.7272 11.1649 20.2025 12.3048 20.5669 13.3423C20.9458 14.3799 22.0828 14.906 23.1177 14.5407L28.642 12.524C29.327 17.1127 26.7325 21.716 22.1994 23.3674H22.214Z" fill="white"/>
</g>
<defs>
<clipPath id="clip0_1_1315">
<rect width="170" height="28" fill="white"/>
</clipPath>
</defs>
</svg>
